# xmcd
#
# Track frame offsets: 
#        150
#        18277
#        33202
#        47477
#        64763
#        81396
#        101000
#        118028
#        138424
#        155680
#        173534
#        191545
#        209195
#        228743
#        244503
#        263905
#        283887
#        300890
#        321634
#        339707
#
# Disc length: 4760 seconds
#
# Revision: 0
# Processed by: cddbd v1.5.2PL0 Copyright (c) Steve Scherf et al.
# Submitted via: ExactAudioCopyFreeDBPlugin 1.0
#
DISCID=24129614
DTITLE=Various Artist - Chilled R&B Volume II Disc 1
DYEAR=2008
DGENRE=R&B
TTITLE0=Jordin Sparks - Battlefield
TTITLE1=Akon - Colby O'Donis - Kardinal Offishall - Beautiful
TTITLE2=Shontelle - T-Shirt
TTITLE3=Ne-Yo - Miss Independent
TTITLE4=Jennifer Hudson - Spotlight
TTITLE5=Jamie Foxx - T-Pain - Blame It
TTITLE6=Chris Brown - Yo (Excuse Me Miss)
TTITLE7=R. Kelly - Your Body's Callin'
TTITLE8=Joe - If I Was Your Man
TTITLE9=Ciara - Like A Boy
TTITLE10=Toni Braxton - He Wasn't Man Enough
TTITLE11=Monica - The First Night
TTITLE12=Blackstreet - Don't Leave Me
TTITLE13=John Legend - Used To Love U
TTITLE14=Maxwell - Sumthin' Sumthin'
TTITLE15=Angie Stone - Wish I Didn't Miss You
TTITLE16=Erykah Badu - On and On
TTITLE17=Lauryn Hill - Ex-Factor
TTITLE18=Anthony Hamilton - Comin' From Where I'm From
TTITLE19=Lemar - If There's Any Justice
EXTD=
EXTT0=
EXTT1=
EXTT2=
EXTT3=
EXTT4=
EXTT5=
EXTT6=
EXTT7=
EXTT8=
EXTT9=
EXTT10=
EXTT11=
EXTT12=
EXTT13=
EXTT14=
EXTT15=
EXTT16=
EXTT17=
EXTT18=
EXTT19=
PLAYORDER=
